<mxfile host="app.diagrams.net" modified="2021-01-09T15:21:42.287Z" agent="5.0 (Macintosh; Intel Mac OS X 11_1_0) AppleWebKit/537.36 (KHTML, like Gecko) Chrome/87.0.4280.88 Safari/537.36" etag="k9FQLNgqGUOdjht_nrxt" version="14.1.8" type="github">
  <diagram id="tQqcgxhjwbBOvLVQUvvc" name="Page-1">
    <mxGraphModel dx="946" dy="646" grid="1" gridSize="10" guides="1" tooltips="1" connect="1" arrows="1" fold="1" page="1" pageScale="1" pageWidth="1200" pageHeight="1920" math="0" shadow="0">
      <root>
        <mxCell id="0" />
        <mxCell id="1" parent="0" />
        <mxCell id="zeKRQwFSOE-vU90h6ogd-3" style="edgeStyle=orthogonalEdgeStyle;rounded=0;orthogonalLoop=1;jettySize=auto;html=1;exitX=0.5;exitY=1;exitDx=0;exitDy=0;entryX=0.5;entryY=0;entryDx=0;entryDy=0;" parent="1" source="zeKRQwFSOE-vU90h6ogd-1" target="zeKRQwFSOE-vU90h6ogd-2" edge="1">
          <mxGeometry relative="1" as="geometry" />
        </mxCell>
        <mxCell id="zeKRQwFSOE-vU90h6ogd-1" value="线索分配" style="rounded=1;whiteSpace=wrap;html=1;" parent="1" vertex="1">
          <mxGeometry x="420" y="10" width="110" height="30" as="geometry" />
        </mxCell>
        <mxCell id="zeKRQwFSOE-vU90h6ogd-8" style="edgeStyle=orthogonalEdgeStyle;rounded=0;orthogonalLoop=1;jettySize=auto;html=1;exitX=0.5;exitY=1;exitDx=0;exitDy=0;entryX=0.5;entryY=0;entryDx=0;entryDy=0;" parent="1" source="zeKRQwFSOE-vU90h6ogd-2" target="zeKRQwFSOE-vU90h6ogd-7" edge="1">
          <mxGeometry relative="1" as="geometry" />
        </mxCell>
        <mxCell id="zeKRQwFSOE-vU90h6ogd-2" value="获取待完成任务" style="rounded=1;whiteSpace=wrap;html=1;" parent="1" vertex="1">
          <mxGeometry x="420" y="60" width="110" height="30" as="geometry" />
        </mxCell>
        <mxCell id="zeKRQwFSOE-vU90h6ogd-6" value="查询state=1且business_id&amp;gt;0且updated_at&amp;gt;now() 00:00:00&amp;lt;now() 当前时间点减去一分钟&lt;br&gt;表 ：leads_assign_record&lt;br&gt;只查询1条" style="text;html=1;strokeColor=none;fillColor=none;align=left;verticalAlign=middle;whiteSpace=wrap;rounded=0;" parent="1" vertex="1">
          <mxGeometry x="570" y="47.5" width="280" height="52.5" as="geometry" />
        </mxCell>
        <mxCell id="zeKRQwFSOE-vU90h6ogd-15" style="edgeStyle=orthogonalEdgeStyle;rounded=0;orthogonalLoop=1;jettySize=auto;html=1;exitX=0.5;exitY=1;exitDx=0;exitDy=0;entryX=0.5;entryY=0;entryDx=0;entryDy=0;" parent="1" source="zeKRQwFSOE-vU90h6ogd-7" target="zeKRQwFSOE-vU90h6ogd-14" edge="1">
          <mxGeometry relative="1" as="geometry" />
        </mxCell>
        <mxCell id="zeKRQwFSOE-vU90h6ogd-7" value="获取上一条任务" style="rounded=1;whiteSpace=wrap;html=1;" parent="1" vertex="1">
          <mxGeometry x="420" y="108.75" width="110" height="30" as="geometry" />
        </mxCell>
        <mxCell id="zeKRQwFSOE-vU90h6ogd-11" value="根据上一条数据获取tag_id和id，查询id&amp;lt;上一条的id 且tag_id等于上一条的tag_id条件的状态&lt;br&gt;表 ：leads_assign_record&lt;br&gt;只查询1条" style="text;html=1;strokeColor=none;fillColor=none;align=left;verticalAlign=middle;whiteSpace=wrap;rounded=0;" parent="1" vertex="1">
          <mxGeometry x="570" y="108.75" width="280" height="52.5" as="geometry" />
        </mxCell>
        <mxCell id="zeKRQwFSOE-vU90h6ogd-17" style="edgeStyle=orthogonalEdgeStyle;rounded=0;orthogonalLoop=1;jettySize=auto;html=1;exitX=0;exitY=0.5;exitDx=0;exitDy=0;entryX=0;entryY=0.5;entryDx=0;entryDy=0;" parent="1" source="zeKRQwFSOE-vU90h6ogd-14" target="zeKRQwFSOE-vU90h6ogd-2" edge="1">
          <mxGeometry relative="1" as="geometry">
            <Array as="points">
              <mxPoint x="370" y="191" />
              <mxPoint x="370" y="75" />
            </Array>
          </mxGeometry>
        </mxCell>
        <mxCell id="zeKRQwFSOE-vU90h6ogd-22" style="edgeStyle=orthogonalEdgeStyle;rounded=0;orthogonalLoop=1;jettySize=auto;html=1;exitX=0.5;exitY=1;exitDx=0;exitDy=0;entryX=0.5;entryY=0;entryDx=0;entryDy=0;" parent="1" source="zeKRQwFSOE-vU90h6ogd-14" target="zeKRQwFSOE-vU90h6ogd-21" edge="1">
          <mxGeometry relative="1" as="geometry" />
        </mxCell>
        <mxCell id="zeKRQwFSOE-vU90h6ogd-14" value="上一条状态是否=2&lt;br&gt;（执行完成）" style="rhombus;whiteSpace=wrap;html=1;" parent="1" vertex="1">
          <mxGeometry x="405" y="161.25" width="140" height="60" as="geometry" />
        </mxCell>
        <mxCell id="zeKRQwFSOE-vU90h6ogd-16" style="edgeStyle=orthogonalEdgeStyle;rounded=0;orthogonalLoop=1;jettySize=auto;html=1;exitX=0.5;exitY=1;exitDx=0;exitDy=0;" parent="1" source="zeKRQwFSOE-vU90h6ogd-14" target="zeKRQwFSOE-vU90h6ogd-14" edge="1">
          <mxGeometry relative="1" as="geometry" />
        </mxCell>
        <mxCell id="zeKRQwFSOE-vU90h6ogd-18" value="否&lt;br&gt;等待10s" style="text;html=1;align=center;verticalAlign=middle;resizable=0;points=[];autosize=1;" parent="1" vertex="1">
          <mxGeometry x="310" y="120" width="60" height="30" as="geometry" />
        </mxCell>
        <mxCell id="zeKRQwFSOE-vU90h6ogd-20" value="是" style="text;html=1;align=center;verticalAlign=middle;resizable=0;points=[];autosize=1;" parent="1" vertex="1">
          <mxGeometry x="480" y="221.25" width="30" height="20" as="geometry" />
        </mxCell>
        <mxCell id="zeKRQwFSOE-vU90h6ogd-30" style="edgeStyle=orthogonalEdgeStyle;rounded=0;orthogonalLoop=1;jettySize=auto;html=1;exitX=0.5;exitY=1;exitDx=0;exitDy=0;" parent="1" source="zeKRQwFSOE-vU90h6ogd-21" target="zeKRQwFSOE-vU90h6ogd-29" edge="1">
          <mxGeometry relative="1" as="geometry" />
        </mxCell>
        <mxCell id="zeKRQwFSOE-vU90h6ogd-21" value="更新&lt;span style=&quot;text-align: left&quot;&gt;leads_assign_record表&lt;/span&gt;&lt;br&gt;updated_at时间为当前时间" style="rounded=1;whiteSpace=wrap;html=1;" parent="1" vertex="1">
          <mxGeometry x="395" y="241.25" width="160" height="40" as="geometry" />
        </mxCell>
        <mxCell id="zeKRQwFSOE-vU90h6ogd-23" value="分配大公海到小公海" style="rounded=1;whiteSpace=wrap;html=1;" parent="1" vertex="1">
          <mxGeometry x="270" y="460" width="110" height="50" as="geometry" />
        </mxCell>
        <mxCell id="zeKRQwFSOE-vU90h6ogd-24" value="分配大公海到私海&lt;br&gt;分配小公海到私海" style="rounded=1;whiteSpace=wrap;html=1;" parent="1" vertex="1">
          <mxGeometry x="421.25" y="460" width="107.5" height="50" as="geometry" />
        </mxCell>
        <mxCell id="zeKRQwFSOE-vU90h6ogd-25" value="分配小公海到私海&lt;br&gt;（已有线索和坐席绑定）&lt;br&gt;数据表备注：私海分配到小公海" style="rounded=1;whiteSpace=wrap;html=1;" parent="1" vertex="1">
          <mxGeometry x="545" y="460" width="180" height="50" as="geometry" />
        </mxCell>
        <mxCell id="zeKRQwFSOE-vU90h6ogd-31" style="edgeStyle=orthogonalEdgeStyle;rounded=0;orthogonalLoop=1;jettySize=auto;html=1;exitX=0.5;exitY=1;exitDx=0;exitDy=0;" parent="1" source="zeKRQwFSOE-vU90h6ogd-29" target="zeKRQwFSOE-vU90h6ogd-23" edge="1">
          <mxGeometry relative="1" as="geometry" />
        </mxCell>
        <mxCell id="zeKRQwFSOE-vU90h6ogd-32" style="edgeStyle=orthogonalEdgeStyle;rounded=0;orthogonalLoop=1;jettySize=auto;html=1;exitX=0.5;exitY=1;exitDx=0;exitDy=0;entryX=0.5;entryY=0;entryDx=0;entryDy=0;" parent="1" source="zeKRQwFSOE-vU90h6ogd-29" target="zeKRQwFSOE-vU90h6ogd-24" edge="1">
          <mxGeometry relative="1" as="geometry" />
        </mxCell>
        <mxCell id="zeKRQwFSOE-vU90h6ogd-33" style="edgeStyle=orthogonalEdgeStyle;rounded=0;orthogonalLoop=1;jettySize=auto;html=1;exitX=0.5;exitY=1;exitDx=0;exitDy=0;entryX=0.5;entryY=0;entryDx=0;entryDy=0;" parent="1" source="zeKRQwFSOE-vU90h6ogd-29" target="zeKRQwFSOE-vU90h6ogd-25" edge="1">
          <mxGeometry relative="1" as="geometry" />
        </mxCell>
        <mxCell id="zeKRQwFSOE-vU90h6ogd-29" value="返回线索分配任务结果" style="rounded=1;whiteSpace=wrap;html=1;" parent="1" vertex="1">
          <mxGeometry x="408.75" y="310" width="132.5" height="30" as="geometry" />
        </mxCell>
        <mxCell id="zeKRQwFSOE-vU90h6ogd-34" value="assign_type=1" style="text;html=1;align=center;verticalAlign=middle;resizable=0;points=[];autosize=1;" parent="1" vertex="1">
          <mxGeometry x="220" y="420" width="90" height="20" as="geometry" />
        </mxCell>
        <mxCell id="zeKRQwFSOE-vU90h6ogd-35" value="assign_type=2，3" style="text;html=1;align=center;verticalAlign=middle;resizable=0;points=[];autosize=1;" parent="1" vertex="1">
          <mxGeometry x="360" y="420" width="110" height="20" as="geometry" />
        </mxCell>
        <mxCell id="zeKRQwFSOE-vU90h6ogd-36" value="assign_type=4" style="text;html=1;align=center;verticalAlign=middle;resizable=0;points=[];autosize=1;" parent="1" vertex="1">
          <mxGeometry x="545" y="420" width="90" height="20" as="geometry" />
        </mxCell>
      </root>
    </mxGraphModel>
  </diagram>
</mxfile>
